<!-- Copyright © 2000–2024 JetBrains s.r.o. -->
<svg width="13" height="16" viewBox="0 0 13 16" xmlns="http://www.w3.org/2000/svg">
    <path fill="#fff" d="M2.87 10.95v.29q3.615 3.15 7.23 0v-.29z"/>
    <path fill="#478CBF" d="m2.87 10.95 1.35.12c.07 0 .12.05.13.12l.04.6 1.17.09.07-.54c.01-.07.06-.11.13-.13H7.2c.08.02.12.07.13.13l.07.54 1.17-.09.04-.6c.02-.08.06-.12.13-.12l1.35-.12V8.76c.18-.23.34-.47.5-.72-.21-.35-.45-.67-.74-.96-.25.12-.5.26-.73.42q-.36-.33-.78-.57c.04-.3.07-.6.07-.91-.35-.17-.71-.29-1.09-.37-.15.25-.29.52-.41.79q-.435-.06-.87 0c-.12-.27-.25-.54-.41-.79-.38.08-.74.21-1.09.37 0 .3.03.6.07.91-.28.16-.55.35-.78.57-.23-.16-.47-.3-.73-.42-.28.29-.53.61-.74.96.15.25.32.49.5.72v2.19Zm0 .29v.35c0 2.45 7.23 2.45 7.23 0v-.35l-1.19.11-.04.61q-.015.09-.12.12l-1.44.1c-.07 0-.12-.03-.14-.1l-.09-.58H5.92l-.09.58c-.02.07-.07.1-.14.1l-1.44-.1q-.105-.03-.12-.12l-.04-.61-1.2-.11Z"/>
    <path fill="#fff" d="M6.23 10.3c.03.3.49.3.52 0v-.76c-.03-.3-.49-.3-.52 0z"/>
    <circle cx="8.38" cy="9.64" r=".8" fill="#FEFEFE"/>
    <circle cx="4.59" cy="9.64" r=".8" fill="#FEFEFE"/>
    <circle cx="4.66" cy="9.69" r=".53" fill="#414042"/>
    <circle cx="8.31" cy="9.69" r=".53" fill="#414042"/>
    <path fill="#fff" d="M12.92 4.83 8.17.09A.27.27 0 0 0 7.96 0H1.19C.53 0 0 .53 0 1.19v13.63c0 .65.53 1.19 1.19 1.19h10.63c.65 0 1.19-.53 1.19-1.19V5.04c0-.08-.03-.15-.08-.21Zm-.51 9.98c0 .33-.27.59-.59.59H1.19c-.33 0-.59-.27-.59-.59V1.19C.6.86.87.6 1.19.6h6.48v3.56c0 .65.53 1.19 1.19 1.19h3.56v9.48Z"/>
</svg>