<!-- Copyright © 2000–2024 JetBrains s.r.o. -->
<svg width="16" height="16" viewBox="0 0 16 16" xmlns="http://www.w3.org/2000/svg">
  <path fill="none" stroke="#CED0D6" stroke-linejoin="round" d="M14.07 3.09c-.46.23-.9.49-1.32.77-.51-.51-1.37-1-1.4-1.03.07-.54.11-1.07.12-1.62-.63-.32-1.3-.52-1.97-.68-.27.45-.52.95-.73 1.43-.24-.04-.51-.06-.77-.06s-.53.02-.77.06C7.01 1.48 6.77.99 6.5.53c-.68.15-1.35.36-1.97.68.01.55.05 1.08.12 1.62-.04.02-.89.52-1.4 1.03a12 12 0 0 0-1.32-.77C1.44 3.62.98 4.19.6 4.83c.28.46.58.89.9 1.3v4.97c0 2.28 2.89 3.38 6.49 3.39 3.6-.01 6.49-1.11 6.49-3.39V6.13c.32-.41.62-.84.9-1.3-.38-.64-.83-1.21-1.33-1.74z"/>
  <path fill="none" stroke="#CED0D6" stroke-miterlimit="10" d="M5.72 7.71c0 .57-.46 1.03-1.03 1.03s-1.03-.46-1.03-1.03.46-1.03 1.03-1.03 1.03.46 1.03 1.03Zm4.56 0c0 .57.46 1.03 1.03 1.03s1.03-.46 1.03-1.03-.46-1.03-1.03-1.03-1.03.46-1.03 1.03Z"/>
  <path fill="none" stroke="#CED0D6" stroke-linecap="round" stroke-miterlimit="10" stroke-width=".9" d="M14.49 10.35c-.71.07-2.13.19-2.13.19-.09 0-.16.08-.17.18l-.07 1.06c0 .09-.08.17-.18.18l-2.32.17c-.09 0-.18-.07-.19-.16L9.29 11a.186.186 0 0 0-.19-.16H6.9c-.09 0-.17.07-.19.16l-.14.97c-.01.09-.1.16-.19.16l-2.32-.17c-.09 0-.17-.08-.18-.18l-.07-1.06c0-.09-.08-.17-.17-.18 0 0-1.43-.12-2.13-.19"/>
  <path fill="none" stroke="#CED0D6" stroke-linecap="round" stroke-miterlimit="10" d="M8 7.36v1.58"/>
</svg>
