<!-- Copyright © 2000–2024 JetBrains s.r.o. -->
<svg width="16" height="18" viewBox="0 0 16 18" xmlns="http://www.w3.org/2000/svg">
  <path fill="none" stroke="#CED0D6" stroke-linecap="round" stroke-miterlimit="10" d="M6.4 15.44c.51.05 1.05.08 1.6.08 3.6-.01 6.49-1.11 6.49-3.39V7.16c.32-.41.62-.84.9-1.3-.38-.64-.83-1.21-1.33-1.74-.46.23-.9.49-1.32.77-.51-.51-1.37-1-1.4-1.03.07-.54.11-1.07.12-1.62-.63-.32-1.3-.52-1.97-.68-.27.45-.52.95-.73 1.43-.24-.04-.51-.06-.77-.06s-.53.02-.77.06c-.22-.48-.46-.97-.73-1.43-.68.15-1.35.36-1.97.68.01.55.05 1.08.12 1.62-.04.02-.89.52-1.4 1.03a12 12 0 0 0-1.32-.77c-.49.53-.95 1.1-1.33 1.74.28.46.58.89.9 1.3v3.5M8 8.4v1.58M3.55 8.66H5.4m5.2 0h1.85"/>
  <path fill="none" stroke="#DB5C5C" stroke-miterlimit="10" d="M2.5 16.54a2 2 0 1 0 0-4 2 2 0 0 0 0 4Z"/>
  <path fill="none" stroke="#CED0D6" stroke-linecap="round" stroke-miterlimit="10" stroke-width=".9" d="M14.49 11.39c-.71.07-2.13.19-2.13.19-.09 0-.16.08-.17.18l-.07 1.06c0 .09-.08.17-.18.18l-2.32.17c-.09 0-.18-.07-.19-.16l-.14-.97a.186.186 0 0 0-.19-.16H6.9c-.09 0-.17.07-.19.16l-.14.97c-.01.09-.1.16-.19.16h-.13"/>
</svg>
