<!-- Copyright © 2000–2024 JetBrains s.r.o. -->
<svg width="16" height="16" viewBox="0 0 16 16" xmlns="http://www.w3.org/2000/svg">
  <path fill="#3382bd" d="M12.68 12.25c0 .14-.12.25-.26.26l-2.97.2a.27.27 0 0 1-.27-.24l-.16-1.07H6.98l-.16 1.07c-.02.14-.14.24-.27.24l-.66-.04c.07.27.11.55.11.84 0 .47-.1.93-.27 1.34.71.1 1.47.16 2.26.16 3.86 0 6.98-1.19 6.98-3.64v-.48l-2.22.22-.08 1.15Zm1.85-9.49c-.49.25-.97.53-1.41.82-.55-.55-1.47-1.08-1.51-1.1.08-.58.12-1.15.13-1.74C11.07.4 10.35.18 9.62.01c-.29.49-.56 1.02-.79 1.53-.26-.04-.54-.07-.83-.07s-.57.02-.83.07C6.94 1.02 6.67.5 6.38.01 5.65.17 4.93.4 4.26.74c.02.59.05 1.16.13 1.74-.04.03-.96.56-1.51 1.1-.45-.3-.92-.58-1.41-.82C.95 3.33.45 3.94.05 4.62c.31.49.63.96.97 1.4v4.1l.47.04c.32-.1.66-.17 1.01-.17 1.35 0 2.5.77 3.09 1.89l.52.04.16-1.05c.02-.14.14-.24.27-.24h2.92c.14 0 .25.1.27.24l.16 1.05 2.05-.16.08-1.14c0-.14.12-.24.25-.26l2.71-.25v-4.1c.35-.44.66-.9.97-1.4-.4-.69-.9-1.3-1.42-1.87ZM5.44 8.22H3.51c-.25 0-.46-.22-.46-.5s.2-.5.46-.5h1.93c.25 0 .46.22.46.5s-.2.5-.46.5m3.11.81c0 .28-.25.5-.55.5s-.55-.22-.55-.5V7.45c0-.28.25-.5.55-.5s.55.22.55.5zm3.94-.81h-1.93c-.25 0-.46-.22-.46-.5s.2-.5.46-.5h1.93c.25 0 .46.22.46.5s-.2.5-.46.5"/>
  <path fill="#c75450" d="M2.5 16a2.5 2.5 0 0 1 0-5 2.5 2.5 0 0 1 0 5m0-4c-.83 0-1.5.67-1.5 1.5S1.67 15 2.5 15 4 14.33 4 13.5 3.33 12 2.5 12"/>
</svg>
