<!-- Copyright © 2000–2024 JetBrains s.r.o. -->
<svg width="16" height="16" viewBox="0 0 16 16" xmlns="http://www.w3.org/2000/svg">
  <path fill="#6e6e6e" d="M6.85 6c1.04 0 2.87.38 2.87 1.47 0 .47-.32.65-.79.65-.29 0-.61-.07-.9-.17l.51-1.02c-.65-.27-1.27-.3-1.48-.3C5.7 6.63 5 7.51 5 8.51c0 1.91 2.07 2.79 3.98 2.84 2.7.07 5.02-1.53 5.02-4.29 0-3.29-3.54-5.3-6.98-5.3-1.78 0-2.92.39-4.3.93l.56 1.41c1.17-.57 2.45-.86 3.74-.86 2.54 0 5.57 1.24 5.57 3.78 0 1.55-1.29 3-3.43 3-1.04 0-2.87-.38-2.87-1.47 0-.47.32-.65.79-.65.29 0 .61.07.9.17l-.51 1.02c.65.27 1.27.3 1.48.3 1.36 0 2.06-.88 2.06-1.88 0-1.94-2.14-2.84-4.13-2.84-2.64 0-4.87 1.48-4.87 4.29 0 3.29 3.54 5.3 6.98 5.3 1.78 0 2.92-.39 4.3-.93l-.56-1.41c-1.17.57-2.45.86-3.74.86-3.83 0-5.56-2.01-5.56-3.84C3.43 7.41 4.64 6 6.85 6"/>
</svg>
