<svg width="16" height="16" viewBox="0 0 16 16" xmlns="http://www.w3.org/2000/svg">
  <path fill="#fff" d="M14.363 10.52s-.02-.133-.035-.13l-2.351.227a.385.385 0 0 0-.348.356l-.063.925-1.82.13-.125-.84a.386.386 0 0 0-.379-.329H6.758a.386.386 0 0 0-.38.329l-.124.84-1.82-.13-.063-.925a.385.385 0 0 0-.348-.356l-2.355-.226c-.012-.004-.02.129-.031.129l-.004.507 1.992.32.066.938c.016.188.168.34.356.356l2.508.18h.027a.386.386 0 0 0 .379-.329l.129-.863h1.82l.13.863a.386.386 0 0 0 .378.328h.027l2.508-.18a.392.392 0 0 0 .356-.355l.066-.937 1.992-.32Zm0 0"/>
  <path fill="#478cbf" d="M1.637 6.68v3.84h.02l2.355.226c.12.012.218.11.226.234l.074 1.04 2.055.148.14-.961a.252.252 0 0 1 .25-.215h2.485c.125 0 .23.09.25.215l.14.961 2.056-.148.074-1.04a.251.251 0 0 1 .226-.234l2.356-.226h.02V6.68h.007c.313-.399.602-.82.879-1.266a9.626 9.626 0 0 0-1.3-1.703c-.446.223-.88.477-1.29.75-.203-.203-.433-.371-.66-.547-.223-.176-.477-.309-.715-.46.074-.528.11-1.048.121-1.59a8.326 8.326 0 0 0-1.933-.665c-.262.446-.504.93-.715 1.399-.25-.043-.5-.059-.754-.059h-.008c-.254 0-.504.016-.754.059a13.58 13.58 0 0 0-.719-1.399 8.36 8.36 0 0 0-1.93.664c.012.543.048 1.063.122 1.59-.238.152-.492.285-.715.461-.227.176-.457.344-.66.547-.41-.274-.844-.527-1.29-.75a9.626 9.626 0 0 0-1.3 1.703c.277.445.566.867.879 1.266Zm0 0"/>
  <path fill="#478cbf" d="m12.25 11.23-.07 1.043a.26.26 0 0 1-.239.239l-2.504.175c-.007 0-.015.004-.019.004a.253.253 0 0 1-.25-.218l-.145-.977H6.977l-.145.977a.25.25 0 0 1-.27.214l-2.503-.175a.26.26 0 0 1-.239-.239l-.07-1.043-2.117-.203c0 .227.004.477.004.524 0 2.238 2.836 3.312 6.36 3.324h.007c3.523-.012 6.36-1.086 6.36-3.324 0-.051.003-.297.003-.524Zm0 0"/>
  <path fill="#fff" d="M6.082 8.238a1.418 1.418 0 1 1-2.836 0 1.418 1.418 0 0 1 2.836 0"/>
  <path fill="#414042" d="M5.738 8.32a.942.942 0 1 1-1.882-.001.942.942 0 0 1 1.882.001"/>
  <path fill="#fff" d="M8 9.785c-.254 0-.457-.187-.457-.414V8.062c0-.226.203-.414.457-.414s.457.188.457.415V9.37c0 .227-.203.414-.457.414m1.918-1.546a1.418 1.418 0 1 0 2.836 0 1.418 1.418 0 0 0-2.836 0"/>
  <path fill="#414042" d="M10.262 8.32a.942.942 0 1 0 1.882-.001.942.942 0 0 0-1.882.001"/>
</svg>
