<!-- Copyright © 2000–2024 JetBrains s.r.o. -->
<svg width="16" height="16" viewBox="0 0 16 16" xmlns="http://www.w3.org/2000/svg">
  <path fill="#3382bd" d="m12.76 11.1 2.22-.22v.48c0 2.45-3.11 3.64-6.97 3.64s-6.98-1.19-6.98-3.64v-.48l2.22.22.08 1.15c0 .14.12.25.26.26l2.97.2c.14 0 .25-.1.27-.24l.16-1.07h2.04l.16 1.07c.02.14.14.24.27.24l2.97-.2c.14 0 .25-.12.26-.26l.08-1.15Zm3.19-6.48c-.31.49-.63.96-.97 1.4v4.1l-2.71.25a.27.27 0 0 0-.25.26l-.08 1.14-2.05.16-.16-1.05a.28.28 0 0 0-.27-.24H6.54c-.14 0-.25.1-.27.24l-.16 1.05-2.05-.16-.08-1.14c0-.14-.12-.24-.25-.26l-2.71-.25v-4.1c-.35-.44-.66-.9-.97-1.4.4-.69.9-1.3 1.42-1.87.49.25.97.53 1.41.82.55-.55 1.47-1.08 1.51-1.1-.08-.58-.12-1.15-.13-1.74C4.94.39 5.66.17 6.38 0c.29.49.56 1.02.79 1.53.26-.04.54-.07.83-.07s.57.02.83.07c.23-.52.5-1.04.79-1.53.73.16 1.45.39 2.12.73-.02.59-.05 1.16-.13 1.74.04.03.96.56 1.51 1.1.45-.3.92-.58 1.41-.82.53.57 1.02 1.18 1.42 1.87m-7.4 2.84c0-.28-.25-.5-.55-.5s-.55.22-.55.5v1.58c0 .28.25.5.55.5s.55-.22.55-.5z"/>
  <path fill="#e3e1e6" d="M6.05 7.72c0-.94-.77-1.71-1.71-1.71s-1.71.77-1.71 1.71.77 1.71 1.71 1.71 1.71-.77 1.71-1.71m7.32 0c0-.94-.77-1.71-1.71-1.71s-1.71.77-1.71 1.71.77 1.71 1.71 1.71 1.71-.77 1.71-1.71"/>
  <path fill="#262526" d="M5.52 7.81c0 .57-.46 1.03-1.03 1.03s-1.03-.46-1.03-1.03.46-1.03 1.03-1.03 1.03.46 1.03 1.03m4.96 0c0 .57.46 1.03 1.03 1.03s1.03-.46 1.03-1.03-.46-1.03-1.03-1.03-1.03.46-1.03 1.03"/>
</svg>
