<!-- Copyright © 2000–2024 JetBrains s.r.o. -->
<svg width="40" height="40" viewBox="0 0 40 40" xmlns="http://www.w3.org/2000/svg">
  <path fill="#478cbf" d="m31.73 27.94 5.83-.56v1.45c0 6.17-7.82 9.13-17.54 9.17H20c-9.72-.03-17.54-3-17.54-9.17v-1.45l5.83.56.2 2.88c.02.35.3.62.65.65 0 0 6.95.5 6.97.5.34 0 .64-.25.69-.6l.4-2.69h5.64l.4 2.69c.05.35.35.6.69.6.02 0 6.97-.5 6.97-.5.35-.02.62-.3.65-.65l.2-2.88ZM40 11.9c-.77 1.24-1.57 2.41-2.44 3.52v10.57l-6.55.63c-.34.03-.61.31-.63.65l-.2 2.87-5.67.4-.39-2.65a.7.7 0 0 0-.69-.6h-6.85c-.35 0-.64.25-.69.6l-.39 2.65-5.67-.4-.2-2.87a.705.705 0 0 0-.63-.65l-6.55-.63V15.42C1.58 14.31.78 13.15.01 11.9c1.01-1.73 2.26-3.27 3.58-4.7 1.23.62 2.43 1.32 3.56 2.07 1.38-1.37 3.69-2.71 3.79-2.78-.2-1.46-.29-2.89-.33-4.39 1.69-.85 3.5-1.42 5.33-1.82.73 1.23 1.4 2.56 1.98 3.85.65-.11 1.37-.16 2.09-.17.72 0 1.44.06 2.09.17.58-1.3 1.25-2.63 1.98-3.85 1.83.41 3.64.97 5.33 1.82-.04 1.5-.14 2.93-.33 4.39.1.06 2.41 1.41 3.79 2.78C34 8.52 35.2 7.82 36.43 7.2c1.33 1.43 2.57 2.97 3.58 4.7Zm-18.74 7.31c0-.63-.57-1.14-1.26-1.14-.7 0-1.26.51-1.26 1.14v3.6c0 .63.57 1.14 1.26 1.14.7 0 1.26-.51 1.26-1.14z"/>
  <path fill="#fff" d="M14.71 19.69a3.91 3.91 0 1 0-7.82 0 3.91 3.91 0 1 0 7.82 0m18.41 0a3.91 3.91 0 1 0-7.82 0 3.91 3.91 0 1 0 7.82 0"/>
  <path fill="#414042" d="M13.77 19.92a2.601 2.601 0 1 1-5.202-.002 2.601 2.601 0 0 1 5.202.002m12.46 0a2.601 2.601 0 1 0 5.202-.002 2.601 2.601 0 0 0-5.202.002"/>
</svg>
